<svg xmlns="http://www.w3.org/2000/svg" viewBox="0 0 250 250" clip-path="url(#clip)" width="512" height="512"><defs><clipPath id="clip" clipPathUnits="objectBoundingBox"><rect x="0" y="0" width="250" height="250"/></clipPath></defs><rect x="0" y="0" width="250" height="250" fill="rgb(0, 0, 0)"/><path d="M179,-27L-135,194L331,250Z" fill="rgb(146, 208, 178)" fill-opacity="0.68"/><path d="M166,231L101,218L129,240Z" fill="rgb(163, 226, 206)" fill-opacity="0.55"/><path d="M18,151L47,233L-103,162Z" fill="rgb(8, 11, 10)" fill-opacity="0.99"/><path d="M212,7L25,72L82,-82Z" fill="rgb(13, 19, 16)" fill-opacity="0.98"/><path d="M66,237L89,207L36,218Z" fill="rgb(133, 198, 179)" fill-opacity="0.71"/><path d="M31,52L85,63L-2,153Z" fill="rgb(162, 204, 187)" fill-opacity="0.78"/><path d="M151,158L-62,160L221,11Z" fill="rgb(150, 200, 174)" fill-opacity="0.66"/><path d="M106,36L65,174L149,25Z" fill="rgb(138, 199, 166)" fill-opacity="0.92"/><path d="M312,355L250,104L226,241Z" fill="rgb(1, 3, 2)" fill-opacity="0.96"/><path d="M82,218L125,232L94,201Z" fill="rgb(0, 0, 0)" fill-opacity="0.81"/><path d="M142,245L122,160L222,149Z" fill="rgb(136, 211, 188)" fill-opacity="0.51"/><path d="M102,159L141,111L89,118Z" fill="rgb(255, 164, 196)" fill-opacity="0.44"/><path d="M57,238L67,241L72,227Z" fill="rgb(7, 9, 9)" fill-opacity="0.66"/><path d="M253,131L226,161L252,222Z" fill="rgb(1, 3, 2)" fill-opacity="0.95"/><path d="M191,245L139,246L180,211Z" fill="rgb(0, 0, 0)" fill-opacity="0.79"/><path d="M-14,133L24,338L32,177Z" fill="rgb(0, 0, 0)" fill-opacity="0.90"/><path d="M177,29L217,1L157,25Z" fill="rgb(0, 0, 0)" fill-opacity="0.46"/><path d="M126,222L135,240L111,234Z" fill="rgb(160, 198, 189)" fill-opacity="0.58"/><path d="M58,59L93,59L44,-246Z" fill="rgb(0, 0, 0)" fill-opacity="0.95"/><path d="M234,73L195,168L141,83Z" fill="rgb(76, 143, 99)" fill-opacity="0.60"/><path d="M177,29L53,24L265,-43Z" fill="rgb(0, 0, 0)" fill-opacity="0.88"/><path d="M54,119L66,136L77,100Z" fill="rgb(28, 90, 67)" fill-opacity="0.44"/><path d="M80,58L67,73L121,68Z" fill="rgb(178, 253, 227)" fill-opacity="0.43"/><path d="M138,141L108,148L133,112Z" fill="rgb(180, 75, 93)" fill-opacity="0.71"/><path d="M226,25L199,133L194,19Z" fill="rgb(107, 174, 122)" fill-opacity="0.73"/><path d="M241,85L249,113L339,20Z" fill="rgb(7, 11, 8)" fill-opacity="0.93"/><path d="M120,133L121,109L129,132Z" fill="rgb(255, 240, 245)" fill-opacity="0.70"/><path d="M52,235L42,228L73,181Z" fill="rgb(119, 170, 155)" fill-opacity="0.87"/><path d="M152,207L144,241L127,226Z" fill="rgb(155, 220, 192)" fill-opacity="0.55"/><path d="M-74,186L20,73L-3,143Z" fill="rgb(4, 7, 6)" fill-opacity="1.00"/><path d="M187,163L173,213L183,196Z" fill="rgb(54, 86, 77)" fill-opacity="0.65"/><path d="M121,86L115,148L105,132Z" fill="rgb(153, 10, 39)" fill-opacity="0.39"/><path d="M229,25L125,29L88,48Z" fill="rgb(152, 213, 153)" fill-opacity="0.50"/><path d="M139,119L116,96L120,113Z" fill="rgb(135, 14, 37)" fill-opacity="0.51"/><path d="M65,101L47,80L97,75Z" fill="rgb(69, 134, 108)" fill-opacity="0.67"/><path d="M15,161L79,163L55,88Z" fill="rgb(139, 214, 187)" fill-opacity="0.55"/><path d="M20,141L13,122L25,94Z" fill="rgb(190, 36, 72)" fill-opacity="0.54"/><path d="M115,161L36,169L80,182Z" fill="rgb(252, 96, 199)" fill-opacity="0.38"/><path d="M4,150L-1,112L1,196Z" fill="rgb(0, 3, 4)" fill-opacity="0.55"/><path d="M93,142L110,146L106,106Z" fill="rgb(255, 255, 255)" fill-opacity="0.76"/><path d="M57,186L31,197L33,175Z" fill="rgb(152, 250, 223)" fill-opacity="0.43"/><path d="M127,177L131,178L146,167Z" fill="rgb(27, 40, 39)" fill-opacity="0.54"/><path d="M206,239L260,210L242,273Z" fill="rgb(1, 1, 1)" fill-opacity="0.97"/><path d="M76,230L90,191L39,217Z" fill="rgb(116, 182, 161)" fill-opacity="0.62"/><path d="M27,101L67,74L34,53Z" fill="rgb(187, 255, 228)" fill-opacity="0.38"/><path d="M147,71L148,51L156,85Z" fill="rgb(53, 100, 75)" fill-opacity="0.51"/><path d="M165,103L256,113L236,156Z" fill="rgb(96, 174, 105)" fill-opacity="0.40"/><path d="M6,137L6,157L38,172Z" fill="rgb(96, 149, 136)" fill-opacity="0.65"/><path d="M223,232L238,198L204,134Z" fill="rgb(117, 190, 181)" fill-opacity="0.46"/><path d="M109,116L110,143L120,131Z" fill="rgb(140, 16, 32)" fill-opacity="0.47"/><path d="M179,169L156,163L154,235Z" fill="rgb(156, 232, 197)" fill-opacity="0.46"/><path d="M172,207L198,243L164,232Z" fill="rgb(0, 0, 0)" fill-opacity="0.60"/><path d="M144,54L84,85L144,112Z" fill="rgb(140, 217, 190)" fill-opacity="0.61"/><path d="M33,203L47,227L-21,191Z" fill="rgb(2, 2, 2)" fill-opacity="0.97"/><path d="M90,204L43,282L105,206Z" fill="rgb(0, 0, 0)" fill-opacity="0.71"/><path d="M26,120L21,113L23,143Z" fill="rgb(255, 195, 239)" fill-opacity="0.38"/><path d="M95,146L97,118L92,145Z" fill="rgb(40, 82, 72)" fill-opacity="0.52"/><path d="M-19,41L45,35L10,90Z" fill="rgb(0, 0, 0)" fill-opacity="0.94"/><path d="M161,230L139,242L190,287Z" fill="rgb(2, 2, 2)" fill-opacity="1.00"/><path d="M48,108L38,106L43,90Z" fill="rgb(10, 70, 49)" fill-opacity="0.46"/><path d="M155,79L155,97L161,122Z" fill="rgb(23, 37, 37)" fill-opacity="0.57"/><path d="M141,120L132,117L132,92Z" fill="rgb(113, 210, 176)" fill-opacity="0.52"/><path d="M120,213L115,243L107,235Z" fill="rgb(2, 4, 5)" fill-opacity="0.68"/><path d="M154,207L188,191L227,234Z" fill="rgb(130, 217, 207)" fill-opacity="0.28"/><path d="M211,175L213,193L209,175Z" fill="rgb(0, 7, 5)" fill-opacity="0.50"/><path d="M194,180L217,169L206,163Z" fill="rgb(139, 228, 199)" fill-opacity="0.56"/><path d="M179,205L165,232L187,177Z" fill="rgb(22, 35, 32)" fill-opacity="0.70"/><path d="M56,60L70,59L18,-90Z" fill="rgb(1, 1, 1)" fill-opacity="0.95"/><path d="M177,161L106,178L166,106Z" fill="rgb(107, 162, 147)" fill-opacity="0.89"/><path d="M126,138L138,125L126,104Z" fill="rgb(140, 24, 43)" fill-opacity="0.47"/><path d="M213,32L220,84L211,52Z" fill="rgb(37, 82, 51)" fill-opacity="0.42"/><path d="M50,167L51,163L77,163Z" fill="rgb(50, 6, 40)" fill-opacity="0.54"/><path d="M59,178L22,152L24,163Z" fill="rgb(66, 32, 62)" fill-opacity="0.40"/><path d="M124,61L140,53L109,65Z" fill="rgb(9, 16, 11)" fill-opacity="0.49"/><path d="M42,229L44,229L45,219Z" fill="rgb(203, 212, 229)" fill-opacity="0.50"/><path d="M94,84L84,125L62,98Z" fill="rgb(141, 233, 206)" fill-opacity="0.43"/><path d="M135,148L140,148L129,158Z" fill="rgb(31, 47, 37)" fill-opacity="0.41"/><path d="M46,163L112,160L112,145Z" fill="rgb(123, 207, 180)" fill-opacity="0.63"/><path d="M26,120L26,105L23,97Z" fill="rgb(14, 0, 0)" fill-opacity="0.55"/><path d="M209,3L201,30L208,18Z" fill="rgb(7, 16, 8)" fill-opacity="0.51"/><path d="M214,13L157,86L208,66Z" fill="rgb(141, 211, 146)" fill-opacity="0.48"/><path d="M205,182L203,209L217,198Z" fill="rgb(9, 79, 58)" fill-opacity="0.39"/><path d="M33,174L-29,191L23,166Z" fill="rgb(2, 4, 3)" fill-opacity="0.95"/><path d="M251,201L225,226L219,242Z" fill="rgb(0, 0, 0)" fill-opacity="0.72"/><path d="M162,221L146,212L113,237Z" fill="rgb(138, 201, 174)" fill-opacity="0.76"/><path d="M10,141L11,102L16,118Z" fill="rgb(255, 255, 255)" fill-opacity="0.65"/><path d="M129,241L135,237L125,227Z" fill="rgb(243, 244, 255)" fill-opacity="0.49"/><path d="M94,50L120,65L88,60Z" fill="rgb(89, 143, 107)" fill-opacity="0.68"/><path d="M53,122L66,106L72,131Z" fill="rgb(32, 73, 49)" fill-opacity="0.43"/><path d="M199,6L193,21L200,12Z" fill="rgb(129, 186, 136)" fill-opacity="0.50"/><path d="M92,103L87,115L88,120Z" fill="rgb(48, 78, 72)" fill-opacity="0.53"/><path d="M15,139L26,132L25,145Z" fill="rgb(151, 19, 49)" fill-opacity="0.45"/><path d="M230,167L207,135L220,149Z" fill="rgb(0, 11, 3)" fill-opacity="0.49"/><path d="M112,103L131,110L119,98Z" fill="rgb(55, 15, 28)" fill-opacity="0.40"/><path d="M33,174L46,178L52,184Z" fill="rgb(34, 66, 62)" fill-opacity="0.54"/><path d="M90,164L111,167L134,153Z" fill="rgb(77, 66, 85)" fill-opacity="0.56"/><path d="M142,191L103,211L120,210Z" fill="rgb(51, 91, 92)" fill-opacity="0.51"/><path d="M197,234L193,226L190,246Z" fill="rgb(6, 9, 11)" fill-opacity="0.55"/><path d="M14,118L16,137L3,134Z" fill="rgb(253, 246, 254)" fill-opacity="0.53"/><path d="M161,207L133,233L145,192Z" fill="rgb(160, 231, 197)" fill-opacity="0.42"/></svg>