<svg xmlns="http://www.w3.org/2000/svg" viewBox="0 0 256 256" clip-path="url(#clip)" width="500" height="500"><defs><clipPath id="clip" clipPathUnits="objectBoundingBox"><rect x="0" y="0" width="256" height="256"/></clipPath></defs><rect x="0" y="0" width="256" height="256" fill="rgb(0, 0, 0)"/><path d="M239,278L-169,121L236,6Z" fill="rgb(127, 182, 156)" fill-opacity="0.82"/><path d="M40,189L-2,148L-28,239Z" fill="rgb(0, 0, 0)" fill-opacity="0.87"/><path d="M42,239L31,32L87,233Z" fill="rgb(133, 186, 168)" fill-opacity="0.76"/><path d="M143,238L223,293L275,234Z" fill="rgb(1, 0, 2)" fill-opacity="0.89"/><path d="M311,-5L233,71L217,-3Z" fill="rgb(0, 2, 0)" fill-opacity="0.83"/><path d="M139,143L251,79L253,151Z" fill="rgb(88, 145, 109)" fill-opacity="0.97"/><path d="M156,244L112,245L194,151Z" fill="rgb(146, 214, 189)" fill-opacity="0.58"/><path d="M29,82L134,119L118,166Z" fill="rgb(196, 205, 198)" fill-opacity="0.59"/><path d="M-92,150L-1,138L55,-4Z" fill="rgb(1, 2, 2)" fill-opacity="0.97"/><path d="M257,-137L158,30L195,24Z" fill="rgb(2, 3, 2)" fill-opacity="0.93"/><path d="M151,227L119,233L134,246Z" fill="rgb(167, 221, 201)" fill-opacity="0.55"/><path d="M98,203L65,249L172,303Z" fill="rgb(0, 1, 1)" fill-opacity="0.78"/><path d="M2,123L77,69L38,51Z" fill="rgb(199, 255, 237)" fill-opacity="0.45"/><path d="M173,217L195,231L133,305Z" fill="rgb(0, 1, 1)" fill-opacity="0.84"/><path d="M118,94L145,135L110,154Z" fill="rgb(236, 44, 85)" fill-opacity="0.43"/><path d="M243,191L237,220L234,177Z" fill="rgb(118, 183, 169)" fill-opacity="0.55"/><path d="M42,197L116,31L208,26Z" fill="rgb(142, 200, 168)" fill-opacity="0.77"/><path d="M150,90L241,73L256,121Z" fill="rgb(93, 154, 111)" fill-opacity="0.99"/><path d="M13,52L50,55L52,-55Z" fill="rgb(0, 0, 0)" fill-opacity="1.00"/><path d="M210,19L202,9L240,6Z" fill="rgb(0, 0, 0)" fill-opacity="0.61"/><path d="M222,241L239,191L190,238Z" fill="rgb(112, 164, 154)" fill-opacity="0.72"/><path d="M78,40L46,66L112,52Z" fill="rgb(0, 0, 0)" fill-opacity="0.59"/><path d="M226,237L200,331L264,194Z" fill="rgb(1, 2, 2)" fill-opacity="0.97"/><path d="M51,187L32,179L37,219Z" fill="rgb(122, 190, 165)" fill-opacity="0.71"/><path d="M13,164L6,110L79,136Z" fill="rgb(177, 206, 193)" fill-opacity="0.61"/><path d="M111,107L95,141L111,157Z" fill="rgb(255, 255, 255)" fill-opacity="0.71"/><path d="M129,141L118,126L128,115Z" fill="rgb(255, 255, 255)" fill-opacity="0.63"/><path d="M108,68L69,59L52,79Z" fill="rgb(183, 240, 217)" fill-opacity="0.59"/><path d="M26,165L77,201L98,168Z" fill="rgb(129, 104, 129)" fill-opacity="0.68"/><path d="M79,113L55,166L115,164Z" fill="rgb(138, 210, 184)" fill-opacity="0.70"/><path d="M7,123L21,103L11,141Z" fill="rgb(255, 241, 251)" fill-opacity="0.68"/><path d="M245,198L277,121L230,162Z" fill="rgb(5, 10, 7)" fill-opacity="0.82"/><path d="M104,40L88,68L151,24Z" fill="rgb(143, 204, 151)" fill-opacity="0.60"/><path d="M163,129L146,57L90,81Z" fill="rgb(153, 244, 223)" fill-opacity="0.33"/><path d="M233,23L204,79L104,81Z" fill="rgb(130, 197, 147)" fill-opacity="0.71"/><path d="M50,57L67,11L99,62Z" fill="rgb(0, 0, 0)" fill-opacity="0.78"/><path d="M128,102L108,106L137,122Z" fill="rgb(121, 0, 16)" fill-opacity="0.40"/><path d="M109,125L120,145L124,94Z" fill="rgb(161, 32, 61)" fill-opacity="0.44"/><path d="M34,71L21,90L7,97Z" fill="rgb(14, 35, 28)" fill-opacity="0.52"/><path d="M199,33L201,3L222,45Z" fill="rgb(112, 179, 116)" fill-opacity="0.48"/><path d="M254,105L293,70L241,78Z" fill="rgb(0, 0, 0)" fill-opacity="0.70"/><path d="M136,200L134,182L200,155Z" fill="rgb(152, 232, 203)" fill-opacity="0.53"/><path d="M193,278L184,208L142,259Z" fill="rgb(0, 0, 0)" fill-opacity="0.50"/><path d="M16,150L26,144L16,114Z" fill="rgb(167, 0, 14)" fill-opacity="0.44"/><path d="M38,175L120,165L92,181Z" fill="rgb(187, 129, 169)" fill-opacity="0.71"/><path d="M215,14L207,30L213,-18Z" fill="rgb(0, 0, 0)" fill-opacity="0.56"/><path d="M73,130L73,109L63,110Z" fill="rgb(3, 68, 39)" fill-opacity="0.51"/><path d="M97,127L97,138L101,122Z" fill="rgb(4, 1, 11)" fill-opacity="0.54"/><path d="M15,165L-69,194L37,179Z" fill="rgb(2, 4, 3)" fill-opacity="0.90"/><path d="M55,190L38,202L60,212Z" fill="rgb(60, 111, 86)" fill-opacity="0.57"/></svg>