<svg xmlns="http://www.w3.org/2000/svg" viewBox="0 0 256 256" clip-path="url(#clip)" width="500" height="500"><defs><clipPath id="clip" clipPathUnits="objectBoundingBox"><rect x="0" y="0" width="256" height="256"/></clipPath></defs><rect x="0" y="0" width="256" height="256" fill="rgb(0, 0, 0)"/><path d="M234,7L-52,86L247,474Z" fill="rgb(179, 255, 219)" fill-opacity="0.57"/><path d="M209,76L288,237L225,8Z" fill="rgb(74, 122, 87)" fill-opacity="0.97"/><path d="M395,286L185,230L-65,242Z" fill="rgb(4, 4, 6)" fill-opacity="0.84"/><path d="M111,198L30,188L49,240Z" fill="rgb(104, 160, 142)" fill-opacity="1.00"/><path d="M352,65L234,72L219,0Z" fill="rgb(1, 2, 1)" fill-opacity="0.85"/><path d="M174,227L136,251L117,230Z" fill="rgb(171, 241, 217)" fill-opacity="0.53"/><path d="M96,42L155,152L145,25Z" fill="rgb(166, 244, 200)" fill-opacity="0.48"/><path d="M207,184L-6,153L39,47Z" fill="rgb(161, 203, 187)" fill-opacity="0.60"/><path d="M33,54L-119,77L-1,134Z" fill="rgb(3, 5, 5)" fill-opacity="0.99"/><path d="M117,93L152,143L108,151Z" fill="rgb(217, 55, 90)" fill-opacity="0.45"/><path d="M114,17L93,61L54,59Z" fill="rgb(0, 0, 0)" fill-opacity="0.86"/><path d="M69,237L47,217L61,239Z" fill="rgb(153, 202, 189)" fill-opacity="0.63"/><path d="M151,272L60,257L97,204Z" fill="rgb(1, 1, 2)" fill-opacity="0.91"/><path d="M159,91L88,59L99,109Z" fill="rgb(150, 231, 202)" fill-opacity="0.56"/><path d="M155,245L130,182L195,162Z" fill="rgb(146, 228, 196)" fill-opacity="0.49"/><path d="M191,224L173,218L125,350Z" fill="rgb(0, 0, 0)" fill-opacity="0.84"/><path d="M-20,136L34,179L19,274Z" fill="rgb(0, 1, 1)" fill-opacity="0.90"/><path d="M230,166L255,201L273,119Z" fill="rgb(3, 6, 5)" fill-opacity="0.96"/><path d="M57,129L68,105L77,135Z" fill="rgb(40, 107, 74)" fill-opacity="0.52"/><path d="M283,336L255,189L213,263Z" fill="rgb(0, 1, 1)" fill-opacity="0.97"/><path d="M116,167L36,171L77,185Z" fill="rgb(235, 104, 188)" fill-opacity="0.47"/><path d="M104,116L97,148L115,148Z" fill="rgb(255, 255, 255)" fill-opacity="0.71"/><path d="M165,101L189,160L221,145Z" fill="rgb(35, 96, 71)" fill-opacity="0.49"/><path d="M25,88L57,62L114,64Z" fill="rgb(184, 240, 217)" fill-opacity="0.65"/><path d="M30,184L39,203L51,186Z" fill="rgb(159, 253, 221)" fill-opacity="0.41"/><path d="M216,6L185,27L122,30Z" fill="rgb(8, 12, 8)" fill-opacity="0.87"/><path d="M204,11L122,75L247,97Z" fill="rgb(162, 253, 170)" fill-opacity="0.32"/><path d="M184,218L213,241L192,237Z" fill="rgb(137, 181, 181)" fill-opacity="0.51"/><path d="M65,133L77,106L55,121Z" fill="rgb(58, 111, 85)" fill-opacity="0.63"/><path d="M9,151L8,123L20,102Z" fill="rgb(255, 255, 255)" fill-opacity="0.48"/><path d="M14,140L19,107L26,150Z" fill="rgb(222, 2, 51)" fill-opacity="0.40"/><path d="M239,161L256,127L228,53Z" fill="rgb(107, 171, 125)" fill-opacity="0.72"/><path d="M89,167L104,177L142,155Z" fill="rgb(77, 73, 89)" fill-opacity="0.61"/><path d="M129,306L97,266L145,240Z" fill="rgb(6, 6, 6)" fill-opacity="0.89"/><path d="M109,68L53,82L62,106Z" fill="rgb(29, 105, 74)" fill-opacity="0.45"/><path d="M68,62L162,8L29,50Z" fill="rgb(1, 2, 1)" fill-opacity="0.93"/><path d="M219,33L234,19L228,37Z" fill="rgb(102, 174, 125)" fill-opacity="0.56"/><path d="M119,130L129,140L128,113Z" fill="rgb(255, 244, 247)" fill-opacity="0.75"/><path d="M123,30L180,87L177,28Z" fill="rgb(133, 189, 144)" fill-opacity="0.89"/><path d="M147,207L127,252L185,201Z" fill="rgb(151, 215, 189)" fill-opacity="0.54"/><path d="M81,227L125,224L77,307Z" fill="rgb(0, 0, 0)" fill-opacity="0.63"/><path d="M121,243L119,232L175,218Z" fill="rgb(142, 206, 179)" fill-opacity="0.62"/><path d="M41,100L41,118L53,90Z" fill="rgb(61, 128, 104)" fill-opacity="0.62"/><path d="M204,212L218,176L218,209Z" fill="rgb(10, 75, 53)" fill-opacity="0.48"/><path d="M124,242L117,242L121,237Z" fill="rgb(246, 237, 255)" fill-opacity="0.50"/><path d="M26,68L60,59L34,54Z" fill="rgb(150, 235, 206)" fill-opacity="0.56"/><path d="M0,184L3,119L0,104Z" fill="rgb(4, 9, 8)" fill-opacity="0.89"/><path d="M121,62L163,47L117,67Z" fill="rgb(60, 78, 60)" fill-opacity="0.47"/><path d="M252,134L246,223L269,61Z" fill="rgb(2, 3, 2)" fill-opacity="0.84"/><path d="M27,127L21,140L21,116Z" fill="rgb(255, 201, 223)" fill-opacity="0.50"/></svg>