<svg xmlns="http://www.w3.org/2000/svg" viewBox="0 0 250 250" clip-path="url(#clip)" width="431" height="431"><defs><clipPath id="clip" clipPathUnits="objectBoundingBox"><rect x="0" y="0" width="250" height="250"/></clipPath></defs><rect x="0" y="0" width="250" height="250" fill="rgb(0, 0, 0)"/><path d="M331,63L66,328L45,13Z" fill="rgb(132, 166, 169)" fill-opacity="0.69"/><path d="M55,96L164,44L108,9Z" fill="rgb(194, 119, 125)" fill-opacity="0.91"/><path d="M29,135L100,85L-41,45Z" fill="rgb(97, 146, 111)" fill-opacity="0.81"/><path d="M188,229L198,69L231,233Z" fill="rgb(99, 173, 193)" fill-opacity="0.66"/><path d="M64,94L31,27L112,-72Z" fill="rgb(1, 1, 0)" fill-opacity="0.91"/><path d="M159,79L57,230L204,154Z" fill="rgb(131, 190, 202)" fill-opacity="0.69"/><path d="M0,273L180,270L114,213Z" fill="rgb(2, 4, 5)" fill-opacity="0.94"/><path d="M169,199L159,317L196,223Z" fill="rgb(6, 8, 9)" fill-opacity="0.95"/><path d="M29,-27L13,86L-10,78Z" fill="rgb(1, 1, 1)" fill-opacity="0.94"/><path d="M156,165L213,37L179,21Z" fill="rgb(156, 203, 166)" fill-opacity="0.46"/><path d="M20,162L72,137L46,185Z" fill="rgb(97, 142, 110)" fill-opacity="0.90"/><path d="M418,130L247,126L198,23Z" fill="rgb(4, 5, 4)" fill-opacity="0.99"/><path d="M156,198L134,238L173,236Z" fill="rgb(107, 169, 190)" fill-opacity="0.65"/><path d="M202,82L235,72L236,10Z" fill="rgb(1, 2, 2)" fill-opacity="0.90"/><path d="M132,85L150,99L131,111Z" fill="rgb(0, 0, 0)" fill-opacity="0.65"/><path d="M159,47L125,11L167,15Z" fill="rgb(4, 3, 2)" fill-opacity="0.94"/><path d="M172,277L175,200L186,201Z" fill="rgb(0, 2, 3)" fill-opacity="0.92"/><path d="M80,67L51,134L2,90Z" fill="rgb(124, 184, 142)" fill-opacity="0.50"/><path d="M74,199L65,171L153,170Z" fill="rgb(138, 196, 200)" fill-opacity="0.64"/><path d="M79,235L96,229L73,194Z" fill="rgb(84, 138, 155)" fill-opacity="0.90"/><path d="M224,63L212,74L194,64Z" fill="rgb(0, 1, 0)" fill-opacity="0.57"/><path d="M244,141L134,235L224,79Z" fill="rgb(93, 151, 166)" fill-opacity="0.96"/><path d="M152,39L73,58L88,23Z" fill="rgb(254, 146, 159)" fill-opacity="0.50"/><path d="M42,276L61,229L93,245Z" fill="rgb(0, 1, 1)" fill-opacity="0.91"/><path d="M177,69L213,40L177,24Z" fill="rgb(93, 139, 107)" fill-opacity="0.72"/><path d="M179,131L188,108L171,101Z" fill="rgb(132, 0, 10)" fill-opacity="0.46"/><path d="M211,178L256,124L260,152Z" fill="rgb(3, 8, 10)" fill-opacity="0.86"/><path d="M77,217L114,175L126,216Z" fill="rgb(42, 117, 145)" fill-opacity="0.52"/><path d="M93,164L81,153L67,176Z" fill="rgb(154, 214, 225)" fill-opacity="0.53"/><path d="M191,221L224,234L218,198Z" fill="rgb(124, 179, 197)" fill-opacity="0.44"/><path d="M101,180L82,143L121,138Z" fill="rgb(4, 81, 104)" fill-opacity="0.51"/><path d="M90,72L126,94L144,30Z" fill="rgb(208, 97, 116)" fill-opacity="0.71"/><path d="M179,81L163,113L167,137Z" fill="rgb(242, 242, 255)" fill-opacity="0.55"/><path d="M42,126L67,139L42,151Z" fill="rgb(0, 0, 0)" fill-opacity="0.55"/><path d="M109,160L128,223L145,209Z" fill="rgb(146, 202, 206)" fill-opacity="0.57"/><path d="M69,167L58,210L27,191Z" fill="rgb(0, 0, 0)" fill-opacity="0.56"/><path d="M223,179L218,187L196,143Z" fill="rgb(103, 161, 175)" fill-opacity="0.46"/><path d="M133,17L108,18L103,73Z" fill="rgb(244, 162, 171)" fill-opacity="0.62"/><path d="M4,101L-18,78L3,81Z" fill="rgb(2, 0, 4)" fill-opacity="0.69"/><path d="M134,87L207,115L193,81Z" fill="rgb(145, 208, 218)" fill-opacity="0.55"/><path d="M45,103L50,65L8,75Z" fill="rgb(103, 156, 117)" fill-opacity="0.72"/><path d="M23,47L41,86L39,67Z" fill="rgb(0, 0, 0)" fill-opacity="0.64"/><path d="M65,73L59,83L53,74Z" fill="rgb(0, 0, 0)" fill-opacity="0.49"/><path d="M165,238L161,230L155,238Z" fill="rgb(255, 240, 255)" fill-opacity="0.55"/><path d="M190,124L164,95L198,116Z" fill="rgb(77, 0, 6)" fill-opacity="0.31"/><path d="M147,189L227,218L173,133Z" fill="rgb(68, 133, 155)" fill-opacity="0.66"/><path d="M0,99L9,110L57,91Z" fill="rgb(127, 196, 151)" fill-opacity="0.57"/><path d="M209,33L216,60L158,83Z" fill="rgb(90, 136, 100)" fill-opacity="0.62"/><path d="M21,147L-1,115L72,140Z" fill="rgb(1, 2, 2)" fill-opacity="0.92"/><path d="M183,247L168,228L163,193Z" fill="rgb(0, 4, 6)" fill-opacity="0.67"/><path d="M131,185L160,210L138,176Z" fill="rgb(42, 97, 116)" fill-opacity="0.64"/><path d="M206,52L198,51L246,38Z" fill="rgb(1, 2, 1)" fill-opacity="0.65"/><path d="M68,138L49,185L33,156Z" fill="rgb(138, 200, 153)" fill-opacity="0.27"/><path d="M157,235L172,293L98,265Z" fill="rgb(2, 0, 0)" fill-opacity="0.72"/><path d="M97,34L98,-31L106,21Z" fill="rgb(10, 5, 6)" fill-opacity="0.71"/><path d="M12,96L-6,88L-12,101Z" fill="rgb(0, 0, 0)" fill-opacity="0.71"/><path d="M90,231L97,214L114,215Z" fill="rgb(0, 0, 2)" fill-opacity="0.65"/><path d="M92,137L54,166L61,182Z" fill="rgb(78, 106, 86)" fill-opacity="0.78"/><path d="M119,133L69,111L107,135Z" fill="rgb(44, 67, 50)" fill-opacity="0.61"/><path d="M176,124L163,128L168,101Z" fill="rgb(255, 253, 255)" fill-opacity="0.64"/><path d="M94,89L103,79L100,98Z" fill="rgb(55, 46, 31)" fill-opacity="0.48"/><path d="M220,103L193,82L220,85Z" fill="rgb(24, 80, 102)" fill-opacity="0.59"/><path d="M110,15L89,-22L140,19Z" fill="rgb(10, 6, 7)" fill-opacity="0.74"/><path d="M42,171L30,180L30,171Z" fill="rgb(111, 162, 128)" fill-opacity="0.47"/><path d="M101,214L63,234L56,213Z" fill="rgb(79, 169, 196)" fill-opacity="0.42"/><path d="M93,48L98,23L96,62Z" fill="rgb(64, 25, 37)" fill-opacity="0.56"/><path d="M-19,79L81,41L99,-8Z" fill="rgb(0, 0, 0)" fill-opacity="0.75"/><path d="M131,80L184,86L159,113Z" fill="rgb(134, 186, 191)" fill-opacity="0.68"/><path d="M184,204L223,155L194,223Z" fill="rgb(71, 136, 157)" fill-opacity="0.79"/><path d="M72,67L90,20L95,34Z" fill="rgb(255, 181, 190)" fill-opacity="0.48"/><path d="M213,201L220,235L225,215Z" fill="rgb(144, 182, 187)" fill-opacity="0.57"/><path d="M22,173L22,183L44,156Z" fill="rgb(7, 13, 9)" fill-opacity="0.65"/><path d="M159,18L181,41L173,43Z" fill="rgb(0, 3, 0)" fill-opacity="0.48"/><path d="M184,131L245,130L201,86Z" fill="rgb(146, 190, 190)" fill-opacity="0.46"/><path d="M107,27L100,62L107,19Z" fill="rgb(46, 34, 36)" fill-opacity="0.50"/><path d="M195,25L210,30L197,44Z" fill="rgb(8, 13, 10)" fill-opacity="0.71"/><path d="M186,82L168,30L146,57Z" fill="rgb(108, 152, 106)" fill-opacity="0.46"/><path d="M100,218L106,215L101,206Z" fill="rgb(0, 0, 0)" fill-opacity="0.47"/><path d="M240,105L228,94L182,135Z" fill="rgb(138, 188, 191)" fill-opacity="0.58"/><path d="M192,102L197,111L220,89Z" fill="rgb(56, 108, 121)" fill-opacity="0.49"/><path d="M192,111L197,119L180,124Z" fill="rgb(144, 31, 39)" fill-opacity="0.53"/><path d="M226,160L207,171L263,157Z" fill="rgb(3, 7, 8)" fill-opacity="0.74"/><path d="M50,191L58,160L62,208Z" fill="rgb(0, 0, 0)" fill-opacity="0.56"/><path d="M163,37L131,21L114,-14Z" fill="rgb(1, 0, 0)" fill-opacity="0.99"/><path d="M128,207L131,231L153,239Z" fill="rgb(138, 197, 210)" fill-opacity="0.44"/><path d="M157,168L99,179L148,109Z" fill="rgb(151, 200, 201)" fill-opacity="0.53"/><path d="M239,108L234,124L217,84Z" fill="rgb(141, 192, 193)" fill-opacity="0.47"/><path d="M131,27L112,61L121,13Z" fill="rgb(230, 146, 154)" fill-opacity="0.59"/><path d="M231,264L241,225L205,239Z" fill="rgb(0, 0, 0)" fill-opacity="0.97"/><path d="M224,217L235,191L237,244Z" fill="rgb(2, 2, 2)" fill-opacity="0.81"/><path d="M82,168L79,181L91,173Z" fill="rgb(48, 85, 93)" fill-opacity="0.56"/><path d="M32,70L10,75L29,61Z" fill="rgb(137, 204, 146)" fill-opacity="0.44"/><path d="M87,27L72,61L95,66Z" fill="rgb(245, 157, 166)" fill-opacity="0.55"/><path d="M237,134L251,132L240,143Z" fill="rgb(112, 135, 149)" fill-opacity="0.56"/><path d="M48,97L26,66L18,108Z" fill="rgb(129, 199, 147)" fill-opacity="0.43"/><path d="M85,83L80,70L56,70Z" fill="rgb(51, 118, 87)" fill-opacity="0.41"/><path d="M87,241L85,229L81,229Z" fill="rgb(178, 159, 164)" fill-opacity="0.52"/><path d="M40,168L42,172L34,182Z" fill="rgb(11, 18, 14)" fill-opacity="0.54"/><path d="M110,155L127,141L117,119Z" fill="rgb(90, 144, 152)" fill-opacity="0.58"/><path d="M221,211L225,222L225,202Z" fill="rgb(179, 230, 227)" fill-opacity="0.41"/></svg>