<svg xmlns="http://www.w3.org/2000/svg" viewBox="0 0 250 250" clip-path="url(#clip)" width="512" height="512"><defs><clipPath id="clip" clipPathUnits="objectBoundingBox"><rect x="0" y="0" width="250" height="250"/></clipPath></defs><rect x="0" y="0" width="250" height="250" fill="rgb(0, 0, 0)"/><path d="M206,19L-228,94L223,234Z" fill="rgb(216, 245, 239)" fill-opacity="0.41"/><path d="M26,176L89,218L123,85Z" fill="rgb(94, 180, 176)" fill-opacity="0.56"/><path d="M228,137L196,97L247,118Z" fill="rgb(129, 191, 140)" fill-opacity="0.63"/><path d="M28,188L230,172L206,92Z" fill="rgb(90, 151, 148)" fill-opacity="0.77"/><path d="M228,72L228,101L166,95Z" fill="rgb(5, 2, 1)" fill-opacity="0.86"/><path d="M227,149L164,222L135,209Z" fill="rgb(54, 139, 145)" fill-opacity="0.74"/><path d="M60,90L-4,9L-5,117Z" fill="rgb(2, 0, 0)" fill-opacity="0.94"/><path d="M200,182L166,238L339,233Z" fill="rgb(0, 1, 1)" fill-opacity="0.95"/><path d="M92,21L33,87L148,49Z" fill="rgb(239, 139, 143)" fill-opacity="0.68"/><path d="M173,34L104,47L199,91Z" fill="rgb(255, 139, 148)" fill-opacity="0.61"/><path d="M30,134L-8,128L14,236Z" fill="rgb(0, 0, 0)" fill-opacity="0.93"/><path d="M193,-2L232,60L109,15Z" fill="rgb(1, 0, 0)" fill-opacity="0.98"/><path d="M128,33L213,69L164,32Z" fill="rgb(255, 151, 174)" fill-opacity="0.54"/><path d="M124,189L169,170L82,173Z" fill="rgb(230, 159, 191)" fill-opacity="0.56"/><path d="M133,235L147,194L95,193Z" fill="rgb(0, 0, 0)" fill-opacity="0.71"/><path d="M215,58L134,49L167,99Z" fill="rgb(248, 118, 140)" fill-opacity="0.61"/><path d="M38,73L34,57L94,27Z" fill="rgb(255, 143, 165)" fill-opacity="0.56"/><path d="M192,149L92,177L67,105Z" fill="rgb(158, 223, 212)" fill-opacity="0.31"/><path d="M35,72L62,57L30,102Z" fill="rgb(12, 3, 5)" fill-opacity="0.76"/><path d="M246,83L199,69L240,115Z" fill="rgb(2, 0, 0)" fill-opacity="0.77"/><path d="M42,77L41,95L93,96Z" fill="rgb(0, 0, 0)" fill-opacity="0.63"/><path d="M38,63L42,43L21,44Z" fill="rgb(0, 0, 0)" fill-opacity="0.68"/><path d="M215,185L139,216L193,99Z" fill="rgb(56, 129, 129)" fill-opacity="0.82"/><path d="M169,54L175,83L161,81Z" fill="rgb(239, 180, 191)" fill-opacity="0.59"/><path d="M86,91L118,27L57,81Z" fill="rgb(245, 129, 150)" fill-opacity="0.62"/><path d="M206,54L182,44L157,77Z" fill="rgb(226, 124, 139)" fill-opacity="0.96"/><path d="M65,36L107,28L150,-51Z" fill="rgb(2, 1, 1)" fill-opacity="1.00"/><path d="M123,77L141,62L166,96Z" fill="rgb(15, 0, 4)" fill-opacity="0.62"/><path d="M21,152L89,123L89,160Z" fill="rgb(113, 247, 254)" fill-opacity="0.24"/><path d="M75,94L108,135L140,38Z" fill="rgb(27, 21, 0)" fill-opacity="0.34"/><path d="M32,94L4,132L52,121Z" fill="rgb(112, 182, 119)" fill-opacity="0.55"/><path d="M202,50L210,75L216,69Z" fill="rgb(242, 110, 127)" fill-opacity="0.55"/><path d="M104,185L30,123L31,186Z" fill="rgb(48, 125, 126)" fill-opacity="0.66"/><path d="M82,84L72,40L117,58Z" fill="rgb(240, 158, 174)" fill-opacity="0.62"/><path d="M228,133L225,122L248,129Z" fill="rgb(87, 119, 94)" fill-opacity="0.81"/><path d="M37,180L9,185L25,162Z" fill="rgb(0, 0, 0)" fill-opacity="0.65"/><path d="M126,79L248,111L127,106Z" fill="rgb(50, 78, 41)" fill-opacity="0.42"/><path d="M207,154L225,104L136,87Z" fill="rgb(73, 115, 88)" fill-opacity="0.62"/><path d="M162,147L148,147L161,156Z" fill="rgb(255, 247, 252)" fill-opacity="0.57"/><path d="M239,265L210,201L231,148Z" fill="rgb(0, 0, 0)" fill-opacity="0.94"/><path d="M113,62L81,93L104,84Z" fill="rgb(0, 0, 0)" fill-opacity="0.62"/><path d="M114,76L150,140L91,126Z" fill="rgb(95, 137, 93)" fill-opacity="0.57"/><path d="M208,74L185,90L166,62Z" fill="rgb(216, 96, 116)" fill-opacity="0.57"/><path d="M142,189L137,165L158,164Z" fill="rgb(178, 140, 161)" fill-opacity="0.58"/><path d="M179,219L175,206L172,220Z" fill="rgb(212, 225, 226)" fill-opacity="0.50"/><path d="M156,210L156,220L166,218Z" fill="rgb(255, 214, 207)" fill-opacity="0.56"/><path d="M13,117L-17,89L-27,131Z" fill="rgb(1, 3, 1)" fill-opacity="0.87"/><path d="M117,38L156,27L154,-21Z" fill="rgb(3, 2, 1)" fill-opacity="0.86"/><path d="M158,110L148,127L177,108Z" fill="rgb(138, 246, 250)" fill-opacity="0.47"/><path d="M80,205L76,253L100,207Z" fill="rgb(1, 1, 2)" fill-opacity="0.95"/><path d="M207,56L179,27L257,94Z" fill="rgb(5, 2, 2)" fill-opacity="1.00"/><path d="M119,31L34,63L89,30Z" fill="rgb(249, 159, 175)" fill-opacity="0.56"/><path d="M65,200L58,207L70,204Z" fill="rgb(149, 161, 162)" fill-opacity="0.54"/><path d="M134,32L105,50L99,40Z" fill="rgb(117, 95, 65)" fill-opacity="0.53"/><path d="M99,190L83,153L108,247Z" fill="rgb(31, 10, 15)" fill-opacity="0.38"/><path d="M156,183L115,185L84,162Z" fill="rgb(206, 164, 191)" fill-opacity="0.47"/><path d="M164,158L188,147L152,113Z" fill="rgb(115, 221, 222)" fill-opacity="0.32"/><path d="M141,83L117,104L103,87Z" fill="rgb(152, 90, 84)" fill-opacity="0.47"/><path d="M117,155L127,102L157,113Z" fill="rgb(89, 152, 106)" fill-opacity="0.61"/><path d="M29,134L6,133L19,111Z" fill="rgb(107, 153, 110)" fill-opacity="0.52"/><path d="M161,153L160,172L145,191Z" fill="rgb(90, 60, 64)" fill-opacity="0.58"/><path d="M133,103L54,110L81,94Z" fill="rgb(40, 80, 69)" fill-opacity="0.60"/><path d="M234,134L238,133L259,102Z" fill="rgb(86, 120, 93)" fill-opacity="0.50"/><path d="M72,204L77,209L90,203Z" fill="rgb(187, 206, 210)" fill-opacity="0.51"/><path d="M56,188L74,236L24,185Z" fill="rgb(4, 2, 3)" fill-opacity="0.69"/><path d="M255,114L185,94L205,76Z" fill="rgb(0, 0, 0)" fill-opacity="0.60"/><path d="M139,60L131,91L115,59Z" fill="rgb(54, 40, 61)" fill-opacity="0.77"/><path d="M84,158L80,142L97,149Z" fill="rgb(244, 189, 197)" fill-opacity="0.58"/><path d="M93,163L80,165L90,179Z" fill="rgb(124, 39, 49)" fill-opacity="0.50"/><path d="M157,142L157,108L140,139Z" fill="rgb(91, 177, 178)" fill-opacity="0.52"/><path d="M142,188L226,141L152,214Z" fill="rgb(53, 141, 145)" fill-opacity="0.60"/><path d="M126,34L161,56L96,59Z" fill="rgb(192, 155, 126)" fill-opacity="0.62"/><path d="M160,122L171,130L176,110Z" fill="rgb(175, 36, 51)" fill-opacity="0.45"/><path d="M161,85L140,69L147,90Z" fill="rgb(0, 0, 0)" fill-opacity="0.50"/><path d="M139,-38L176,41L204,52Z" fill="rgb(4, 1, 1)" fill-opacity="0.88"/><path d="M34,62L37,72L59,43Z" fill="rgb(244, 108, 126)" fill-opacity="0.62"/><path d="M80,68L98,51L72,59Z" fill="rgb(243, 212, 217)" fill-opacity="0.61"/><path d="M213,100L214,120L245,133Z" fill="rgb(146, 207, 157)" fill-opacity="0.32"/><path d="M96,189L119,181L96,167Z" fill="rgb(185, 159, 180)" fill-opacity="0.52"/><path d="M86,127L8,133L69,92Z" fill="rgb(70, 129, 75)" fill-opacity="0.37"/><path d="M142,210L140,216L148,211Z" fill="rgb(255, 230, 224)" fill-opacity="0.51"/><path d="M50,80L100,72L53,63Z" fill="rgb(218, 92, 112)" fill-opacity="0.58"/><path d="M59,41L88,44L43,66Z" fill="rgb(255, 163, 182)" fill-opacity="0.37"/><path d="M146,30L168,35L153,48Z" fill="rgb(255, 152, 172)" fill-opacity="0.51"/><path d="M93,123L93,104L154,128Z" fill="rgb(84, 141, 95)" fill-opacity="0.54"/><path d="M93,149L83,141L99,150Z" fill="rgb(48, 55, 62)" fill-opacity="0.52"/><path d="M194,47L189,53L146,47Z" fill="rgb(251, 181, 195)" fill-opacity="0.52"/><path d="M-175,-51L63,36L-1,85Z" fill="rgb(0, 0, 0)" fill-opacity="1.00"/><path d="M22,149L34,115L33,133Z" fill="rgb(1, 3, 0)" fill-opacity="0.65"/><path d="M165,146L156,155L162,139Z" fill="rgb(255, 253, 255)" fill-opacity="0.59"/><path d="M67,154L59,193L92,206Z" fill="rgb(61, 145, 146)" fill-opacity="0.74"/><path d="M148,49L126,58L182,64Z" fill="rgb(244, 155, 181)" fill-opacity="0.45"/><path d="M217,186L210,168L239,200Z" fill="rgb(0, 9, 13)" fill-opacity="0.47"/><path d="M198,194L184,196L170,216Z" fill="rgb(18, 140, 152)" fill-opacity="0.40"/><path d="M156,48L134,33L130,54Z" fill="rgb(153, 113, 89)" fill-opacity="0.56"/><path d="M88,91L79,92L70,53Z" fill="rgb(207, 102, 119)" fill-opacity="0.64"/><path d="M96,112L79,110L82,122Z" fill="rgb(116, 192, 192)" fill-opacity="0.60"/><path d="M78,157L56,150L74,126Z" fill="rgb(141, 201, 198)" fill-opacity="0.51"/><path d="M178,52L177,54L201,69Z" fill="rgb(111, 40, 52)" fill-opacity="0.55"/><path d="M86,154L97,152L74,145Z" fill="rgb(246, 255, 255)" fill-opacity="0.52"/></svg>