<svg xmlns="http://www.w3.org/2000/svg" viewBox="0 0 500 500">
  <path fill="#4d6d5e" d="M0 0h500v500H0z"/>
  <g fill-opacity=".5">
    <path fill="#a9eaca" d="M315.4 485.4l111.4-461-457 171.9z"/>
    <path d="M530.3 3L2.9-30.4l-33.2 171.9zM-30.3 383.8l43 146.5 517.6-39z"/>
    <path fill="#94c7b4" d="M120.1 504.9l-121-295L301.7 28.4z"/>
    <path d="M-30.3-1l21.5 267.6L137.7-30.3zm537.1 234.4L401.4-24.4l109.3-5.9z"/>
    <path d="M436.5 530.3l93.8-9.8-25.4-326.2zm-279.3-5.9L-16.6 258.8l-13.7 261.7z"/>
    <path fill="#6eba95" d="M434.6 14.6l35.1 416-242.2 43z"/>
    <path d="M4.9-30.3L493.2 3-14.6 124z"/>
    <path fill="#c7ebdc" d="M4.9 295.9l58.6-193.4 76.1 19.6z"/>
    <path d="M-30.3 87L282.2-30.4 173 120.1zm377 335.9L460 518.6l-179.7-15.7zm-152.4-17.6L83 512.7l213 17.6zm300.8 121.1l-39-211 74.2-72.2zM-30.3 282.2l74.2 248 23.5-183.5z"/>
    <path fill="#709795" d="M49.8 295.9l267.6 56.6L90.8 464z"/>
    <path d="M405.3-30.3H497l33.2 318.4zM-30.3 335L90.8 32.2-30.2 46z"/>
    <path fill="#9ddbc6" d="M231.4 471.7l158.2-164-89.8 169.8z"/>
    <path fill="#ef456c" d="M202.1 299.8l35.2-111.3 46.9 86z"/>
    <path fill="#fff" d="M213.9 217.8l-23.5 50.8 33.2 43z"/>
    <path fill="#38724c" d="M383.8 321.3l-89.9-144.5 95.7-25.4z"/>
    <path fill="#89d1a1" d="M128 274.4L452 57.6l-214.8-2z"/>
    <path fill="#1d5e44" d="M106.4 155.3l95.7-17.6-76.1 64.4z"/>
    <path d="M458 530.3l72.3-72.3-312.5 25.4z"/>
    <path fill="#87ddbe" d="M147.5 458L83 434.6l107.4-45z"/>
    <path d="M378-30.3v80.1L90.7 63.5z"/>
    <path fill="#ad0f32" d="M53.7 190.4l-27.3 50.8 11.7 41z"/>
    <path fill="#636e77" d="M280.3 446.3l-230.5-123 205-9.8z"/>
    <path fill="#7acf86" d="M458 315.4L456 128l47 107.5z"/>
    <path fill="#97ecca" d="M96.7 323.2L231.4 296l-261.7-19.5z"/>
    <path fill="#82c1b9" d="M456 448.2L368.3 462l105.4-99.6z"/>
    <path fill="#013017" d="M108.4 241.2l31.2 19.5V210z"/>
    <path d="M188.5 397.5l-80.1 132.8h162.1z"/>
    <path fill="#fff" d="M253 231.4l-19.6-7.8 15.6 58.6z"/>
    <path d="M131.8-30.3l-29.3 148.5 86-4z"/>
    <path fill="#b0efd6" d="M73.2 184.6l-19.5-54.7 130.9-13.7z"/>
    <path d="M407.2 530.3H225.6l132.8-103.5zm123.1-46.9l-84 43L504.9 206z"/>
    <path fill="#f587c3" d="M217.8 333L79 335l68.4 21.4z"/>
    <path d="M530.3 247l-39-277.3-50.9 125zM63.5 346.7L12.7 530.3l-43-254z"/>
    <path fill="#7db982" d="M354.5 212L206 69.2 456 48z"/>
    <path fill="#fff" d="M28.3 217.8l4 56.6-27.4-3.9z"/>
    <path fill="#7cbaab" d="M436.5 295.9l-232.4 48.8 267.6 21.5z"/>
    <path d="M-8.8 274.4l129-304.7-150.5 7.8zm19.5 255.9l-29.3-84 263.7 37.1z"/>
    <path fill="#335c4f" d="M342.8 213.9l19.5 84 97.7 9.7z"/>
    <path d="M133.8 98.6L415 1-30.3-5z"/>
  </g>
</svg>